<svg width="32" height="32" viewBox="0 0 32 32" fill="none" xmlns="http://www.w3.org/2000/svg">
<path fill-rule="evenodd" clip-rule="evenodd" d="M22 28.7222C22 28.7222 28 20.0359 28 16.7222C28 13.4085 25.3137 10.7222 22 10.7222C18.6863 10.7222 16 13.4085 16 16.7222C16 20.0359 22 28.7222 22 28.7222ZM22 21.0079C24.3669 21.0079 26.2857 19.0892 26.2857 16.7222C26.2857 14.3553 24.3669 12.4365 22 12.4365C19.6331 12.4365 17.7143 14.3553 17.7143 16.7222C17.7143 19.0892 19.6331 21.0079 22 21.0079Z" fill="#D9D9D9"/>
<path d="M6 2H19.3827L2 12.0359V6C2 3.79086 3.79086 2 6 2Z" fill="#D9D9D9"/>
<path d="M2 26V16.6547L11.8481 10.9689L15.0203 16.4633C15.0068 16.6404 15 16.8194 15 17C15 20.1255 19.5754 27.348 21.328 30H6C3.79086 30 2 28.2091 2 26Z" fill="#D9D9D9"/>
<path d="M22.672 30H22.8357L22.7593 29.8677C22.7295 29.9129 22.7003 29.9571 22.672 30Z" fill="#D9D9D9"/>
<path d="M24.5724 27.0081L26.2937 29.9894C28.3657 29.839 30 28.1104 30 26V6C30 4.17659 28.7799 2.63815 27.1116 2.15649L14.4462 9.46891L16.3825 12.8227C17.6585 11.1096 19.6997 10 22 10C25.866 10 29 13.134 29 17C29 19.2782 26.5691 23.7331 24.5724 27.0081Z" fill="#D9D9D9"/>
</svg>
