<svg width="32" height="32" viewBox="0 0 32 32" fill="none" xmlns="http://www.w3.org/2000/svg">
<rect x="3.5" y="15.5" width="4" height="9" rx="1.5" fill="#D9D9D9" stroke="#D9D9D9"/>
<rect x="24.5" y="15.5" width="4" height="9" rx="1.5" fill="#D9D9D9" stroke="#D9D9D9"/>
<path fill-rule="evenodd" clip-rule="evenodd" d="M5 11.4921C5 11.1689 5.07638 10.8526 5.2459 10.5774C6.1784 9.06329 9.7631 4 16 4C22.2369 4 25.8216 9.06329 26.7541 10.5774C26.9236 10.8526 27 11.1689 27 11.4921V25C27 27.2091 25.2091 29 23 29H9C6.79086 29 5 27.2091 5 25V11.4921ZM9 21C9 20.4477 9.44772 20 10 20H22C22.5523 20 23 20.4477 23 21C23 21.5523 22.5523 22 22 22H10C9.44772 22 9 21.5523 9 21ZM18 17C18.5523 17 19 16.5523 19 16L19 11C19 11 19 10 16 10C13 10 13 11 13 11L13 16C13 16.5523 13.4477 17 14 17H18Z" fill="#D9D9D9"/>
<path d="M19 8.5L13 8.5C12.7239 8.5 12.5 8.27614 12.5 8L12.5 3.09604C12.5296 3.06597 12.5944 3.0118 12.7236 2.94721C13.1191 2.74945 14.0255 2.5 16 2.5C17.9745 2.5 18.8809 2.74945 19.2764 2.94721C19.4056 3.0118 19.4704 3.06597 19.5 3.09604L19.5 8C19.5 8.27614 19.2761 8.5 19 8.5Z" stroke="#D9D9D9"/>
</svg>
