<svg width="32" height="32" viewBox="0 0 32 32" fill="none" xmlns="http://www.w3.org/2000/svg">
<path d="M4 25C4 24.4477 4.44772 24 5 24H27C27.5523 24 28 24.4477 28 25V29H4V25Z" fill="#D9D9D9"/>
<path d="M8 23C8 21.8954 8.89543 21 10 21H22C23.1046 21 24 21.8954 24 23V24H8V23Z" fill="#D9D9D9"/>
<rect x="14" y="15" width="4" height="6" fill="#D9D9D9"/>
<path d="M10 3C9.44772 3 8.99913 3.4489 9.00602 4.00115C9.09655 11.2659 10.2612 17 16 17C21.7388 17 22.9035 11.2659 22.994 4.00114C23.0009 3.4489 22.5523 3 22 3H10Z" fill="#D9D9D9"/>
<path d="M6.9173 6.86201C6.94358 6.36505 7.36964 6 7.8673 6H10.4854C10.8083 6 11.1126 6.1543 11.2919 6.42294C12.9134 8.853 14.7707 13 11 13C7.44802 13 6.78733 9.32016 6.9173 6.86201Z" stroke="#D9D9D9"/>
<path d="M25.2913 6.86201C25.265 6.36505 24.839 6 24.3413 6H21.7232C21.4003 6 21.096 6.1543 20.9167 6.42294C19.2952 8.853 17.4379 13 21.2086 13C24.7606 13 25.4213 9.32016 25.2913 6.86201Z" stroke="#D9D9D9"/>
</svg>
