<svg width="32" height="32" viewBox="0 0 32 32" fill="none" xmlns="http://www.w3.org/2000/svg">
<path fill-rule="evenodd" clip-rule="evenodd" d="M16 30C21.5 30 30 23.8 22 11C22 12 21.8 14.2 21 15C20.8333 11.8333 19.2 4.8 14 2C13.8333 4.66667 11.9268 10.1925 8.5 14C4 19 6.5 30 16 30ZM15.6152 28C18.809 28 23.745 24.4571 19.0994 17.1429C19.0994 17.7143 18.9832 18.9714 18.5187 19.4286C18.4219 17.619 17.4734 13.6 14.4538 12C14.357 13.5238 13.2498 16.6814 11.2599 18.8571C8.64676 21.7143 10.0985 28 15.6152 28Z" fill="#D9D9D9"/>
<path d="M22 11L22.424 10.735L21.5 9.2566V11H22ZM21 15L20.5007 15.0263L20.5597 16.1474L21.3536 15.3536L21 15ZM14 2L14.237 1.55976L13.5497 1.18964L13.501 1.96881L14 2ZM8.5 14L8.12835 13.6655L8.12835 13.6655L8.5 14ZM19.0994 17.1429L19.5214 16.8748L18.5994 15.423V17.1429H19.0994ZM18.5187 19.4286L18.0194 19.4553L18.0786 20.5631L18.8694 19.785L18.5187 19.4286ZM14.4538 12L14.6879 11.5582L14.0038 11.1957L13.9548 11.9683L14.4538 12ZM11.2599 18.8571L10.891 18.5197L11.2599 18.8571ZM21.576 11.265C25.5147 17.567 25.3196 22.1127 23.6291 25.0506C21.9166 28.0268 18.5938 29.5 16 29.5V30.5C18.9062 30.5 22.5834 28.8732 24.4959 25.5494C26.4304 22.1873 26.4853 17.233 22.424 10.735L21.576 11.265ZM21.3536 15.3536C21.6217 15.0854 21.8154 14.7272 21.9592 14.3608C22.105 13.9892 22.2122 13.5764 22.2909 13.17C22.448 12.3582 22.5 11.5257 22.5 11H21.5C21.5 11.4743 21.452 12.2418 21.3091 12.98C21.2378 13.3486 21.145 13.6983 21.0283 13.9954C20.9096 14.2978 20.7783 14.5146 20.6464 14.6464L21.3536 15.3536ZM13.763 2.44024C16.2274 3.76724 17.8741 6.11412 18.9283 8.56038C19.9817 11.0048 20.4201 13.4959 20.5007 15.0263L21.4993 14.9737C21.4132 13.3374 20.9516 10.7286 19.8467 8.16462C18.7426 5.60255 16.9726 3.03276 14.237 1.55976L13.763 2.44024ZM8.87165 14.3345C10.6315 12.3791 11.9917 9.99433 12.9331 7.76682C13.8719 5.54534 14.411 3.43988 14.499 2.03119L13.501 1.96881C13.4224 3.22679 12.9248 5.21757 12.012 7.37754C11.1017 9.53148 9.79531 11.8133 8.12835 13.6655L8.87165 14.3345ZM16 29.5C11.482 29.5 8.65451 26.9025 7.46887 23.7013C6.27054 20.4658 6.76898 16.6708 8.87165 14.3345L8.12835 13.6655C5.73102 16.3292 5.22946 20.5342 6.53113 24.0487C7.84549 27.5975 11.018 30.5 16 30.5V29.5ZM18.6773 17.4109C20.9376 20.9696 20.7925 23.4765 19.8655 25.0619C18.9147 26.6879 17.0597 27.5 15.6152 27.5V28.5C17.3645 28.5 19.5744 27.5407 20.7287 25.5667C21.9067 23.5521 21.9068 20.6304 19.5214 16.8748L18.6773 17.4109ZM18.8694 19.785C19.0545 19.6028 19.1806 19.3679 19.2698 19.1442C19.361 18.9155 19.4265 18.6657 19.4738 18.4251C19.5683 17.9448 19.5994 17.4547 19.5994 17.1429H18.5994C18.5994 17.4025 18.5724 17.8266 18.4926 18.2321C18.4529 18.4343 18.4022 18.6202 18.341 18.7737C18.2778 18.9321 18.2152 19.0257 18.168 19.0722L18.8694 19.785ZM14.2197 12.4418C15.5941 13.1701 16.5235 14.4644 17.1243 15.8363C17.7245 17.2069 17.9739 18.6044 18.0194 19.4553L19.018 19.4019C18.9667 18.4432 18.6934 16.9264 18.0403 15.4351C17.3877 13.9451 16.3331 12.4299 14.6879 11.5582L14.2197 12.4418ZM11.6289 19.1946C12.6708 18.0553 13.4726 16.6705 14.0262 15.3814C14.5771 14.0986 14.8995 12.8702 14.9528 12.0317L13.9548 11.9683C13.9112 12.6537 13.6317 13.7659 13.1073 14.9868C12.5857 16.2014 11.8389 17.4832 10.891 18.5197L11.6289 19.1946ZM15.6152 27.5C13.0839 27.5 11.5162 26.0759 10.8568 24.3239C10.1844 22.5374 10.4722 20.4593 11.6289 19.1946L10.891 18.5197C9.43447 20.1122 9.14157 22.6055 9.92091 24.6761C10.7132 26.7813 12.6297 28.5 15.6152 28.5V27.5Z" fill="#D9D9D9"/>
</svg>
